<svg version="1.1" id="_x34_" xmlns="http://www.w3.org/2000/svg" xmlns:xlink="http://www.w3.org/1999/xlink" viewBox="0 0 512 512" xml:space="preserve" width="64px" height="64px" fill="#000000"><g id="SVGRepo_bgCarrier" stroke-width="0"></g><g id="SVGRepo_tracerCarrier" stroke-linecap="round" stroke-linejoin="round"></g><g id="SVGRepo_iconCarrier"> <g> <rect x="162.192" y="218.359" style="fill:#F9E59C;" width="37.365" height="175.949"></rect> <path style="fill:#727650;" d="M213.116,316.188c0,5.439-6.464,7.409-13.559,9.301c-6.464,1.655-13.401,3.231-16.633,7.096 c0,0-0.079,0-0.079,0.077c-1.261,1.42-1.971,3.154-1.971,5.362c0-2.207-0.709-3.941-1.971-5.362 c-3.232-3.941-10.248-5.518-16.712-7.173c-7.094-1.892-13.559-3.863-13.559-9.301c0-0.789,0.552-2.208,1.892-3.784 c1.892-2.207,5.439-4.731,11.667-6.465c4.651-1.418,10.8-2.286,18.683-2.286c7.883,0,14.032,0.868,18.683,2.286 c4.887,1.34,8.12,3.231,10.248,5.044c0.395,0.316,0.789,0.71,1.104,1.026c0.079,0.158,0.237,0.237,0.316,0.395 C212.564,313.98,213.116,315.399,213.116,316.188z"></path> <path style="opacity:0.2;fill:#B0A06C;" d="M199.557,263.922v14.111l-18.683,3.389l-18.683-3.389v-14.111 c6.543,1.657,12.849,2.523,18.683,2.523C186.708,266.445,193.014,265.579,199.557,263.922z"></path> <path style="fill:#F9E59C;" d="M237.711,332.033v39.887H124.038v-39.887c0-10.801,8.829-19.629,19.629-19.629h74.415 C228.882,312.404,237.711,321.232,237.711,332.033z"></path> <path style="opacity:0.1;fill:#040000;" d="M218.097,312.435h-6.824c-1.906-2.206-5.494-4.751-11.689-6.53v-27.897v-14.118v-45.564 h-18.711v175.977h18.711v-22.347h38.122v-39.91C237.707,321.26,228.883,312.435,218.097,312.435z"></path> <g> <g> <path style="fill:#DBCB8B;" d="M183.634,263.765l-2.759-11.98l-0.473-2.052c-2.602-11.035-5.045-21.52-7.41-31.374 c-6.543-27.433-12.219-50.529-17.106-69.842c-0.079-0.316-0.079-0.631-0.237-0.868c-0.078-0.395-0.157-0.866-0.315-1.261 c-0.079-0.473-0.236-1.024-0.315-1.497h-0.079c-4.493-18.052-8.277-32.637-11.509-44.303c-0.079-0.473-0.157-0.947-0.315-1.418 c0-0.079,0-0.158-0.079-0.158c-0.079-0.395-0.158-0.789-0.315-1.184c0-0.077,0-0.077,0-0.077 c-0.079-0.395-0.158-0.71-0.237-0.947c-0.158-0.631-0.315-1.261-0.473-1.892c-3.311-12.14-5.675-20.495-7.252-25.777 c11.352-4.967,25.304-12.14,22.624-23.254c-2.365-10.012-16.16-12.298-21.993-13.322c-10.957-1.813-27.118-2.76-49.269-2.76 c-7.016,0-18.289-2.128-30.113-4.965c-16.397-3.941-33.897-9.224-42.253-11.982L1.3,8.751L0.354,20.733 c-0.158,1.892-3.626,45.956,14.977,97.669c11.036,30.506,27.512,57.31,48.875,79.698c2.129,2.206,4.257,4.334,6.464,6.386 c1.34,1.261,2.601,2.521,4.02,3.784c10.484,9.538,21.993,18.129,34.606,25.777c0.237,0.156,0.473,0.314,0.71,0.471 c0.079,0.079,0.158,0.158,0.237,0.158c15.766,9.538,33.108,17.579,51.949,23.886c1.656,0.631,3.311,1.182,5.045,1.734 l10.879,3.468l2.759,0.947l2.917,0.945l0.316,0.079v-0.079L183.634,263.765z M72.247,178.156 c-16.082-18.526-28.536-40.204-37.523-64.877C22.742,80.406,20.456,50.294,20.14,34.213c5.676,1.655,12.613,3.705,19.944,5.676 c6.148,1.655,12.691,3.231,18.998,4.571c10.169,2.209,19.865,3.707,27.039,3.707c23.649,0,36.971,1.182,44.46,2.286 c-2.128,1.024-4.887,2.286-8.277,3.705c-1.261,0.552-2.286,0.945-3.075,1.34c-7.488,3.389-6.779,9.067-6.385,10.799 c0.158,0.71,0.473,1.42,0.789,2.052c2.523,8.354,16.239,54.392,43.12,168.537C122.225,223.247,93.925,203.618,72.247,178.156z"></path> </g> <g> <path style="fill:#DBCB8B;" d="M361.395,20.733l-0.158-2.365l-0.788-9.617l-6.622,2.206l-5.833,1.894 c-8.356,2.758-25.856,8.041-42.253,11.982c-11.824,2.837-23.097,4.965-30.113,4.965c-22.151,0-38.311,0.947-49.269,2.76 c-5.833,1.024-19.629,3.31-21.993,13.322c-2.68,11.114,11.273,18.287,22.624,23.254c-1.577,5.283-3.941,13.637-7.253,25.777 c-0.157,0.631-0.315,1.261-0.473,1.892c-0.315,1.182-0.709,2.523-0.946,3.784c-0.394,1.105-0.631,2.207-0.946,3.31 c-2.759,10.248-5.991,22.625-9.696,37.367c-0.079,0.235-0.158,0.551-0.237,0.866c-0.236,1.024-0.552,2.129-0.788,3.233 c-0.079,0.314-0.158,0.55-0.237,0.866c-5.045,19.786-10.879,43.593-17.658,72.129c-2.365,9.854-4.809,20.339-7.41,31.374 l-0.473,2.052l-2.759,11.98l-0.473,1.892v0.079l0.315-0.079l2.917-0.945l2.759-0.947l10.879-3.468 c1.734-0.552,3.39-1.103,5.045-1.734c18.84-6.307,36.183-14.348,51.949-23.886c0.079,0,0.158-0.079,0.236-0.158l0.079-0.079 c2.05-1.182,4.099-2.444,6.07-3.784c1.971-1.26,3.863-2.521,5.833-3.863c3.232-2.129,6.385-4.494,9.46-6.938 c2.838-2.127,5.676-4.413,8.435-6.778c3.074-2.679,6.148-5.439,9.065-8.277c2.365-2.129,4.651-4.413,6.858-6.699 c21.363-22.388,37.839-49.192,48.875-79.698C365.021,66.69,361.552,22.625,361.395,20.733z M327.025,113.28 c-6.78,18.682-15.609,35.629-26.566,50.845v0.079c-2.759,3.941-5.676,7.804-8.907,11.509c-0.631,0.868-1.262,1.655-2.05,2.444 v0.079c-21.757,25.383-50.057,45.012-84.506,58.649c26.881-114.146,40.598-160.183,43.12-168.537 c0.315-0.631,0.63-1.341,0.788-2.052c0.394-1.732,1.104-7.41-6.385-10.799c-0.788-0.395-1.813-0.787-3.074-1.34 c-3.39-1.418-6.148-2.681-8.277-3.705c7.489-1.105,20.811-2.286,44.46-2.286c7.094,0,16.633-1.497,26.724-3.626 c0.078-0.081,0.236-0.081,0.315-0.081c6.227-1.34,12.691-2.916,18.762-4.492c7.489-1.971,14.504-4.02,20.18-5.754 C341.294,50.294,339.007,80.406,327.025,113.28z"></path> </g> </g> <path style="fill:#F9E59C;" d="M308.185,15.214c-0.71,1.026-1.577,4.731-2.444,9.619v0.235c-0.473,2.365-0.867,5.125-1.34,7.883 c-0.63,3.549-1.182,7.411-1.734,11.509c0,0.081-0.079,0.158,0,0.239c-0.788,5.439-1.577,11.43-2.286,17.814 c-2.208,20.418-3.941,45.169-3.941,73.312c0,15.371-2.523,29.482-6.937,42.333v0.079c-5.912,17.5-15.372,32.556-26.566,45.09 c-1.734,1.971-3.469,3.784-5.36,5.597c-1.813,1.892-3.784,3.784-5.755,5.518l-0.079,0.079c-0.078,0.079-0.157,0.158-0.236,0.158 c-0.079,0.158-0.079,0.158-0.158,0.237c-16.318,14.426-34.922,24.043-51.791,28.299c-5.36,1.341-10.563,2.209-15.45,2.444h-0.316 c-0.946,0.079-1.971,0.079-2.917,0.079c-0.946,0-1.971,0-2.917-0.079h-0.315c-4.887-0.235-10.09-1.103-15.451-2.444 c-16.948-4.255-35.552-13.951-51.949-28.535c-0.079,0-0.158-0.079-0.237-0.158c-6.858-6.149-13.322-13.085-19.156-20.81 c-3.232-4.415-6.306-9.067-9.066-14.032c-1.419-2.523-2.759-5.125-4.02-7.804c-0.946-1.813-1.734-3.626-2.444-5.439 c-0.867-1.894-1.576-3.865-2.286-5.835c-0.236-0.629-0.473-1.261-0.631-1.89c-0.078-0.158-0.157-0.316-0.157-0.552 c-4.415-12.85-6.937-26.961-6.937-42.333c0-28.143-1.734-52.895-3.941-73.312c-0.71-6.305-1.419-12.296-2.208-17.737 c0-0.077,0-0.235-0.079-0.316c-0.473-4.018-1.025-7.725-1.655-11.193c-0.158-1.182-0.316-2.363-0.552-3.468 c-0.315-1.576-0.552-3.231-0.867-4.65v-0.316c-0.868-4.888-1.735-8.593-2.444-9.619L180.874,0L308.185,15.214z"></path> <g> <g> <polygon style="opacity:0.1;fill:#FFFFFF;" points="182.726,64.52 193.211,96.789 227.14,96.789 199.691,116.732 210.175,149.001 182.726,129.058 155.276,149.001 165.761,116.732 138.311,96.789 172.241,96.789 "></polygon> <polygon style="fill:#727650;" points="181.652,62.679 192.136,94.948 226.066,94.948 198.616,114.891 209.101,147.16 181.652,127.217 154.202,147.16 164.687,114.891 137.237,94.948 171.167,94.948 "></polygon> </g> <g> <polygon style="fill:#6B6D4D;" points="165.117,114.487 168.185,116.652 159.161,143.656 154.204,147.16 "></polygon> <polygon style="fill:#6B6D4D;" points="181.651,62.679 183.437,68.171 173.839,97.713 141.038,97.713 137.235,94.95 171.168,94.95 "></polygon> <polygon style="fill:#6B6D4D;" points="142.111,97.37 168.395,116.766 168.155,117.52 140.852,97.37 "></polygon> </g> </g> <path style="opacity:0.1;fill:#040000;" d="M308.185,15.214c-0.71,1.026-1.577,4.731-2.444,9.619v0.235 c-0.473,2.365-0.867,5.125-1.34,7.883c-0.63,3.549-1.182,7.411-1.734,11.509c0,0.081-0.079,0.158,0,0.239 c-0.788,5.439-1.577,11.43-2.286,17.814c-2.208,20.418-3.941,45.169-3.941,73.312c0,15.371-2.523,29.482-6.937,42.333v0.079 c-5.912,17.5-15.372,32.556-26.566,45.09c-1.734,1.971-3.469,3.784-5.36,5.597c-1.813,1.892-3.784,3.784-5.755,5.518l-0.079,0.079 c-0.078,0.079-0.157,0.158-0.236,0.158c-0.079,0.158-0.079,0.158-0.158,0.237c-16.318,14.426-34.922,24.043-51.791,28.299 c-5.36,1.341-10.563,2.209-15.45,2.444h-0.316c-0.946,0.079-1.971,0.079-2.917,0.079V0L308.185,15.214z"></path> <g style="opacity:0.7;"> <path style="opacity:0.1;fill:#040000;" d="M324.158,20.194c-0.397,5.665-1.196,11.688-2.414,17.889 c-0.14,0.704-0.279,1.402-0.43,2.101c-6.185,1.637-12.688,3.235-19.012,4.592c0.57-4.101,1.151-7.944,1.726-11.531 c0.464-2.86,0.916-5.637,1.363-8.123C311.682,23.602,318.129,21.887,324.158,20.194z"></path> <path style="opacity:0.1;fill:#040000;" d="M297.195,187.358c-1.145,4.084-2.598,8.285-4.346,12.548 c-0.671,1.637-1.391,3.279-2.157,4.933c-11.783,11.291-24.929,21.33-39.376,30.079c16.079-14.28,29.968-33.225,37.856-56.304 c3.978-4.62,7.743-9.442,11.285-14.453C300.643,171.039,299.564,178.938,297.195,187.358z"></path> </g> <g style="opacity:0.5;"> <path style="opacity:0.1;fill:#040000;" d="M37.332,20.194c0.397,5.665,1.195,11.688,2.414,17.889 c0.14,0.704,0.279,1.402,0.43,2.101c6.185,1.637,12.688,3.235,19.012,4.592c-0.57-4.101-1.151-7.944-1.726-11.531 c-0.464-2.86-0.916-5.637-1.363-8.123C49.807,23.602,43.36,21.887,37.332,20.194z"></path> <path style="opacity:0.1;fill:#040000;" d="M110.164,234.914c-12.849-7.804-24.753-16.632-35.474-26.644 c-1.34-1.026-2.601-2.209-3.863-3.47c-0.079-0.079-0.079-0.237-0.158-0.314c-0.71-1.499-1.419-2.996-2.05-4.573 c-1.734-4.257-3.153-8.435-4.335-12.535c-2.365-8.435-3.469-16.318-3.232-23.255c3.547,5.044,7.253,9.854,11.273,14.503 l0.078,0.081c0.158,0.629,0.395,1.26,0.631,1.89c0.71,1.971,1.419,3.942,2.286,5.835c0.71,1.813,1.498,3.626,2.444,5.439 c1.183,2.679,2.523,5.281,4.02,7.804c2.68,4.965,5.755,9.617,9.066,14.032c5.518,7.567,11.746,14.426,18.446,20.339 C109.612,234.361,109.848,234.677,110.164,234.914z"></path> </g> <rect x="43.001" y="332.662" style="fill:#343B4B;" width="275.747" height="132.435"></rect> <rect x="9.025" y="449.173" style="fill:#343B4B;" width="343.698" height="62.827"></rect> <rect x="64.552" y="360.647" style="fill:#2F343F;" width="232.644" height="94.848"></rect> <rect x="64.552" y="353.635" style="fill:#DFE0E4;" width="232.644" height="94.848"></rect> <rect x="118.549" y="371.232" style="fill:#343B4B;" width="124.65" height="10.581"></rect> <rect x="93.595" y="397.49" style="fill:#343B4B;" width="174.559" height="10.581"></rect> <rect x="93.595" y="422.259" style="fill:#343B4B;" width="174.559" height="10.581"></rect> <polygon style="opacity:0.1;fill:#040000;" points="352.743,449.074 318.723,449.074 318.723,332.594 237.707,332.594 180.874,332.594 180.874,511.923 352.743,511.923 "></polygon> </g> </g></svg>